HIERARCHY
ROOT Hips
{
	OFFSET 0.000000 0.000000 0.000000
	CHANNELS 6 Xposition Yposition Zposition Zrotation Yrotation Xrotation 
	JOINT LHipJoint
	{
		OFFSET 0.000000 0.000000 0.000000
		CHANNELS 3 Zrotation Yrotation Xrotation
		JOINT LeftUpLeg
		{
			OFFSET 1.363060 -1.794630 0.839290
			CHANNELS 3 Zrotation Yrotation Xrotation
			JOINT LeftLeg
			{
				OFFSET 2.448110 -6.726130 0.000000
				CHANNELS 3 Zrotation Yrotation Xrotation
				JOINT LeftFoot
				{
					OFFSET 2.562200 -7.039590 0.000000
					CHANNELS 3 Zrotation Yrotation Xrotation
					JOINT LeftToeBase
					{
						OFFSET 0.157640 -0.433110 2.322550
						CHANNELS 3 Zrotation Yrotation Xrotation
						End Site
						{
							OFFSET 0.000000 0.000000 0.000000
						}
					}
				}
			}
		}
	}
	JOINT RHipJoint
	{
		OFFSET 0.000000 0.000000 0.000000
		CHANNELS 3 Zrotation Yrotation Xrotation
		JOINT RightUpLeg
		{
			OFFSET -1.305520 -1.794630 0.839290
			CHANNELS 3 Zrotation Yrotation Xrotation
			JOINT RightLeg
			{
				OFFSET -2.542530 -6.985550 0.000000
				CHANNELS 3 Zrotation Yrotation Xrotation
				JOINT RightFoot
				{
					OFFSET -2.568260 -7.056230 0.000000
					CHANNELS 3 Zrotation Yrotation Xrotation
					JOINT RightToeBase
					{
						OFFSET -0.164730 -0.452590 2.363150
						CHANNELS 3 Zrotation Yrotation Xrotation
						End Site
						{
							OFFSET 0.000000 0.000000 0.000000
						}
					}
				}
			}
		}
	}
	JOINT LowerBack
	{
		OFFSET 0.000000 0.000000 0.000000
		CHANNELS 3 Zrotation Yrotation Xrotation
		JOINT Spine
		{
			OFFSET 0.028270 2.035590 -0.193380
			CHANNELS 3 Zrotation Yrotation Xrotation
			JOINT Spine1
			{
				OFFSET 0.056720 2.048850 -0.042750
				CHANNELS 3 Zrotation Yrotation Xrotation
				JOINT Neck
				{
					OFFSET 0.000000 0.000000 0.000000
					CHANNELS 3 Zrotation Yrotation Xrotation
					JOINT Neck1
					{
						OFFSET -0.054170 1.746240 0.172020
						CHANNELS 3 Zrotation Yrotation Xrotation
						JOINT Head
						{
							OFFSET 0.104070 1.761360 -0.123970
							CHANNELS 3 Zrotation Yrotation Xrotation
							End Site
							{
								OFFSET 0.000000 0.000000 0.000000
							}
						}
					}
				}
				JOINT LeftShoulder
				{
					OFFSET 0.000000 0.000000 0.000000
					CHANNELS 3 Zrotation Yrotation Xrotation
					JOINT LeftArm
					{
						OFFSET 3.362410 1.200890 -0.311210
						CHANNELS 3 Zrotation Yrotation Xrotation
						JOINT LeftForeArm
						{
							OFFSET 4.983000 -0.000000 -0.000000
							CHANNELS 3 Zrotation Yrotation Xrotation
							JOINT LeftHand
							{
								OFFSET 3.483560 -0.000000 -0.000000
								CHANNELS 3 Zrotation Yrotation Xrotation
								JOINT LeftFingerBase
								{
									OFFSET 0.000000 0.000000 0.000000
									CHANNELS 3 Zrotation Yrotation Xrotation
									JOINT LeftHandIndex1
									{
										OFFSET 0.715260 -0.000000 -0.000000
										CHANNELS 3 Zrotation Yrotation Xrotation
										End Site
										{
											OFFSET 0.000000 0.000000 0.000000
										}
									}
								}
								JOINT LThumb
								{
									OFFSET 0.000000 0.000000 0.000000
									CHANNELS 3 Zrotation Yrotation Xrotation
									End Site
									{
										OFFSET 0.000000 0.000000 0.000000
									}
								}
							}
						}
					}
				}
				JOINT RightShoulder
				{
					OFFSET 0.000000 0.000000 0.000000
					CHANNELS 3 Zrotation Yrotation Xrotation
					JOINT RightArm
					{
						OFFSET -3.136600 1.374050 -0.404650
						CHANNELS 3 Zrotation Yrotation Xrotation
						JOINT RightForeArm
						{
							OFFSET -5.241900 -0.000000 -0.000000
							CHANNELS 3 Zrotation Yrotation Xrotation
							JOINT RightHand
							{
								OFFSET -3.444170 -0.000000 -0.000000
								CHANNELS 3 Zrotation Yrotation Xrotation
								JOINT RightFingerBase
								{
									OFFSET 0.000000 0.000000 0.000000
									CHANNELS 3 Zrotation Yrotation Xrotation
									JOINT RightHandIndex1
									{
										OFFSET -0.622530 -0.000000 -0.000000
										CHANNELS 3 Zrotation Yrotation Xrotation
										End Site
										{
											OFFSET 0.000000 0.000000 0.000000
										}
									}
								}
								JOINT RThumb
								{
									OFFSET 0.000000 0.000000 0.000000
									CHANNELS 3 Zrotation Yrotation Xrotation
									End Site
									{
										OFFSET 0.000000 0.000000 0.000000
									}
								}
							}
						}
					}
				}
			}
		}
	}
}
MOTION
Frames: 4
Frame Time: 0.008333
-1.005397 17.797659 -0.116580 18.091865 77.423082 37.960426 -9.722244 0.479477 2.883331 -8.530813 -1.062516 -31.165482 -3.097100 -1.040110 1.810601 -0.339020 -1.854002 6.749532 -0.011100 -0.000000 -35.354700 9.374163 -2.956853 1.106307 11.688774 3.580483 -7.904134 1.519685 -1.352009 18.942830 0.663175 5.853922 11.373760 1.513300 -0.000000 -50.220500 -2.337434 -0.672181 -3.977884 -1.176364 -0.646560 -3.896540 -6.896254 -0.573245 -1.530139 10.204397 -11.052283 -8.390283 -2.721378 -0.205360 -0.175314 0.000000 0.000000 0.000000 4.307342 13.134962 -0.733843 -71.688496 26.175358 25.105962 179.868185 -66.587221 179.958072 6.209753 -4.803810 -0.284618 -0.029707 0.459652 -0.000000 0.000000 0.000000 0.000000 0.000000 0.000000 0.000000 6.937313 -3.279300 -0.968361 84.523730 10.790423 40.416983 178.910428 74.479356 -179.981617 0.946618 9.244380 0.085237 0.004992 -0.748220 -0.000000 0.000000 0.000000 0.000000 0.000000 0.000000 0.000000 
-0.794234 17.797965 -0.080927 17.804485 77.077760 37.632705 -9.736079 0.491175 2.961042 -8.600602 -1.036325 -31.239665 -3.176924 -1.069345 1.032147 -0.487045 -3.009674 7.669162 -0.314300 -0.000000 -35.792200 9.454149 -2.981008 0.982746 11.478068 3.019520 -8.307632 1.316918 -1.496015 20.869935 0.518533 4.947177 11.560863 1.270600 0.000000 -52.762500 -2.400098 -0.710031 -3.984944 -1.184403 -0.680570 -3.900159 -6.886850 -0.610647 -1.534908 10.201257 -11.062602 -8.375181 -2.697355 -0.203764 -0.168719 0.000000 0.000000 0.000000 4.358926 13.105871 -0.736908 -71.885242 26.725174 24.793726 179.854935 -66.570123 179.958141 6.210191 -4.809483 -0.284574 -0.026870 0.455763 -0.000000 0.000000 0.000000 0.000000 0.000000 0.000000 0.000000 6.844698 -3.313141 -0.977508 84.676311 10.858856 40.603485 178.901101 74.473857 -179.980223 1.125305 9.155016 0.100278 0.000482 -0.744591 -0.000000 0.000000 0.000000 0.000000 0.000000 0.000000 0.000000 
-0.585889 17.786344 -0.045491 17.643256 76.753253 37.430778 -9.732485 0.503595 3.069982 -8.545817 -1.310279 -31.295190 -3.208052 -1.079740 0.631237 -0.573041 -3.716979 8.248612 -0.516600 -0.000000 -35.831100 9.541643 -2.975706 0.827390 11.263174 2.434389 -8.838631 1.092301 -1.641192 23.119821 0.316798 3.577080 11.318865 0.850300 0.000000 -54.920500 -2.472026 -0.757287 -3.973188 -1.193505 -0.722173 -3.900957 -6.876234 -0.655410 -1.548186 10.199973 -11.076242 -8.353386 -2.678388 -0.202588 -0.161039 0.000000 0.000000 0.000000 4.400182 13.011182 -0.732889 -72.117846 27.194427 24.477859 179.842498 -66.605026 179.958173 6.202413 -4.819929 -0.284531 -0.023745 0.452603 -0.000000 0.000000 0.000000 0.000000 0.000000 0.000000 0.000000 6.780254 -3.361271 -0.980690 84.792823 10.919223 40.757604 178.900561 74.505530 -179.979873 1.171543 9.094423 0.103649 -0.000363 -0.741685 -0.000000 0.000000 0.000000 0.000000 0.000000 0.000000 0.000000 
-0.380578 17.762553 -0.010339 17.574619 76.450086 37.304462 -9.713543 0.517664 3.190957 -8.394485 -1.806303 -31.342021 -3.198206 -1.066576 0.649378 -0.608362 -4.029408 8.463703 -0.608900 0.000000 -35.516600 9.635784 -2.939581 0.643961 11.043955 1.847710 -9.440175 0.853588 -1.783956 25.619885 0.055462 1.775664 10.681829 0.290500 0.000000 -56.436600 -2.552596 -0.811214 -3.926778 -1.203835 -0.768150 -3.895619 -6.865477 -0.703945 -1.567338 10.201471 -11.065613 -8.325451 -2.665199 -0.201834 -0.152838 0.000000 0.000000 0.000000 4.462777 12.889464 -0.715605 -72.393620 27.531934 24.194587 179.831179 -66.721354 179.958106 6.199899 -4.836651 -0.285182 -0.020948 0.450367 -0.000000 0.000000 0.000000 0.000000 0.000000 0.000000 0.000000 6.737984 -3.390598 -0.985702 84.876843 10.942407 40.838838 178.910828 74.542254 -179.980542 1.106537 9.056882 0.097537 0.001065 -0.739624 0.000000 0.000000 0.000000 0.000000 0.000000 0.000000 0.000000 
